<mxfile host="app.diagrams.net" modified="2021-11-25T12:41:44.328Z" agent="5.0 (Windows)" etag="5ChSd9J8sGnsL53GJAhx" version="15.8.3" type="github">
  <diagram id="eA_mFEPOBJfSWp3u6jTH" name="Page-1">
    <mxGraphModel dx="813" dy="430" grid="1" gridSize="10" guides="1" tooltips="1" connect="1" arrows="1" fold="1" page="1" pageScale="1" pageWidth="850" pageHeight="1100" math="0" shadow="0">
      <root>
        <mxCell id="0" />
        <mxCell id="1" parent="0" />
        <mxCell id="Y1COn8EXfvMnhqb89J02-12" value="&lt;div&gt;Verilog/SystemVerilog source code parsed to XML format&lt;br&gt;&lt;/div&gt;" style="text;html=1;strokeColor=#d6b656;fillColor=#fff2cc;align=center;verticalAlign=middle;whiteSpace=wrap;rounded=0;" vertex="1" parent="1">
          <mxGeometry x="460" y="160" width="180" height="62.5" as="geometry" />
        </mxCell>
        <mxCell id="Y1COn8EXfvMnhqb89J02-7" value="XML document is converted token level code" style="text;html=1;strokeColor=#d6b656;fillColor=#fff2cc;align=center;verticalAlign=middle;whiteSpace=wrap;rounded=0;" vertex="1" parent="1">
          <mxGeometry x="460" y="270" width="180" height="62.5" as="geometry" />
        </mxCell>
        <mxCell id="Y1COn8EXfvMnhqb89J02-18" value="" style="shape=image;verticalLabelPosition=bottom;labelBackgroundColor=#ffffff;verticalAlign=top;aspect=fixed;imageAspect=0;image=data:image/png,iVBORw0KGgoAAAANSUhEUgAAAZAAAADkCAMAAACBpYKdAAAABGdBTUEAALGPC/xhBQAAACBjSFJNAAB6JgAAgIQAAPoAAACA6AAAdTAAAOpgAAA6mAAAF3CculE8AAAByFBMVEX////czsuWa2K5nJZzOi6QSDqtV0XKZVHndF3MvrupjIbv7+/f39/e2dO9s6eGW1K/v7+cjnt7aE+agmORdG7Pz8+5nHbYtor30J6rq6uZfHa8rquJbGbHx8e3t7e0pqPX19eto5eklpOvr6+hhH6Mfmu+ubN+U0q2saudk4fn5+fOycO7u7uzs7Olm4+fn5+snpujo6Onp6fT09PP1dafq63FztZwgYVQbXNwmaJgg4pAV1xQbYQbTHIhXIgWPVuKnq2Ar7kma58se7bEtrOPm521hYaQSUprDA7awsO8FhjXGRyhEhWGDxG1vsbKsrOAOTqTk5OpqamXl5eldXZ6jp2Ai42fpaa/xcZgcXWXnZ66oqPLy8tve314MTKbm5tabn1idoXj4+Nqfo1YaW2dbW6VZWZ3g4WDiYqvtbaHjY5nc3WPj4+VlZWNXV6iiotrd3mRkZGNjY2Bh4idnZ2Fi4ynra6qkpOSenuWfn+FVVZ0LS6Li4uHk5WagoOhoaHDw8OZmZmKcnPa3Ne0uK6PlYZqcl6kqJ6Ejna5x6Wfq41/hXaipJ/U5L2anJe6vLfKzMeUmI6qrKd3fW7CxL+ytK+MkIaEiH4b0Wv7AAAAAWJLR0QAiAUdSAAAAAlwSFlzAAAASAAAAEgARslrPgAAAAd0SU1FB+AHAQgPM+ZXJjYAADSlSURBVHja7X2JYxTnlWdJanHo+4AP4Q+MnaqUXXY8IfYq9KhpHYBkvGq1ZCmIgQFkEmuPGK9nbTzJHs44k8zM6gBEHBtndvbf3e+9991VLbUOhDzql1iou6tL3e9X7z4qSXrUox71qEc96lGPDjv19QMNvOyPcUSpbyDmfH9tcPDYsWO1Wg+Sg6eBwWPHjx3zOd9XGzx+AulYD5EDp4FjxHqP87XBE4Z6iBw41TTrB/vMMwO1Eyc8RPr2cvYe7ZT6jmnOH7eiUDvmAXJisP9lf8SjRWVAAgFRz9de9kc8WtRn7IU1IgODESA9nXWg1G8AMU9EgJzoAXKwpEXEeVk9CXnJNFBTIeCg8277QhtyrGdDDpz6Bk76j2rHA0CGXvbHO4rE/Af9g4GADHH+sj/e0SPmI8K9SP04ROqM9zDZgk6dOn361H6f1AOEsT6LyPHaGXqSix4kHejs8Llz54aHT+/vWS27UVb6+sHQHz82WHtFSHNED5IqOjV8/sKris7vMyKG2aCb+vq4eOWVWq3W39/HLwIiCiBFr73OA1ujnIH+gYEjnnwcPv+qpv1FRHOaswHkfe1HUj+XZuJkfw0z9LXagG9MBrBoMlg70nHKaYvHqxeG4xdPnT2rVNnucEJNxXhfrTZ4XNGxWn8fAcIu/tirjvQ7zTVgcpBHOkPvBOTVV8+dQgzOGghOK2124UK3uqyvL7ywGYqH868Ga33Eee4nfxUiCUnJgItWjnKGfvhVD5DTp86eO3/h/Pnhs+B0nT6nnz9/dvvz9PUrbVMb8BjJGQ8T74P9BEiQ/KU8ioLkdf/QoxvMn/IBOX/WyMv54VMOD0Bqu/PoYNy/tHMeJ95rFKJXV0eGgoTX0RWRABCnv5RQDG9lXWIy6sbVOhh4tyHv6bovVUeI970iFtHZCw6Q4XOe+nojUGbbxI0Dlpu6bqvUlbLqlbzvkPsN813Hjywgp85VCQgIxbmdAHI85CRa6RIgJ2o/TtP0lbg68mah6M1eVVHT2fMWguELHQHZxoj0h4BQuMfLlam3ZJ6/VV2uijLCRxeQRDlWAIDybjsDMryNhDhAjg2AukLicSGEeH+yujoSAXKEIxEVbgyfOzf89k+Yb0/On33bPTq/nVG3dXTFSZsN4aVCSE0ZFs4iS69ZH3lZRxmQJPnJqVOJTKTn6CpAzrpH24eG/SbIPpOa3KFiPjsTcPnYWwjWgA+TjsoZPxnEIUfWpis6fRaCc2Afdzrr/PDw+fPn6OGF7cMQJQvIzmPvnExsdorlrC/k/Vv0Qn9UHVFwMFBlx9yRRzYMUfqKYvPh0zJJ/8r4WcrAn0e36/yFC+e6SZ2ARzU4WOvnIB+YnWIYqQ/5XH6tQKj4mzWXterXcKiD1bH49PHBI43HBSMSP5VMnlYQvAoYaN/rPFRKukickNk4ybXDm/AshVQWOFqa94rLQywHqGSWq2exDwJ64REOfBvvG6oBqrUjrK88x+rC8F8lPOWnzw4Pnz39Uy8q3D5MN24uNz9BOgRHQNhbwGQQnr6ESy4U5XDYUH+t/8zr6gnKADNKRkJ3xEnGtv2D/27JDwXPv82ZZFRZemMnUaHBw1RApE7qcik5nPC1H73WP4RKSMmgKIQOUpLkUiYyRupK45EgNkcXkNN+euTC8M8Uy5A77PROAKGwXHOREar427vvoibKlOkgtJjM0pQsDOqp90R+iRMe3ACCcnVUyatOAeP/A+NSpJmU8mc7iAotPxNtnxOJvzDwt1L1UlHog5JcKPFQDJeMrI0SpjRJ8f3cFn15cnR11tkIEMVFidd3kJUflhVv7RvQxW8PD6Zh4RkJQIJslyPwfviPFQATFEqE1GIllLzQsa7oSwcfSYoAeQMYkSFf3navnD9d5g+UyZU7hC1W5vInOCAUZ/QER8byiyMIGXjDqKywHPUunlPhXwhOTyY2fEmOrs4662umV4ffAOnIkX0/s+b+/HBJhfQpp1XXo2ontXhQMGFlBFna9/OB/oGhVy5LvOiVLKT4mnLmUl1Jz7lMJQtbT3hydHXWKT+deH6Y5fnPTv30J6j83yBELkDtMFIhfV4f4mDtpDEBzGesOsNJ6jYBOXpdiYEUXAtOShwHG5InoCNzPL8RC3akRcRvcTgNYTu2zCn2JafewAdvg0UPAan5CarBfhQOFl3miXwF201URIjxH794mTNSV2RcwOYX6GWnP37nTE1JknmnjkmOJp3yirbD/Cwlr86feyMDxshTp0+dEoZHlsKq0/GaCuQkL3FwwLb6oGYbEu8V4OBqzxaAyDl5EGcAuGNe6w87wjorwVwJJhDP/uSN805YuIknKMrzRSTMnp8YPMMruDcQiJHSbEOC8TSz3XOK5+Du8jq3mUZbk9I+wFElqoYMn038IjoYDpYDy7BXwQckqnFUz0NFeAAibypo85wYrRQcKDCw9V4ZxDQ2+HHmkaTTb2Dvux8lnsOEIvg/PGUhf+Iq4PHa68qCRwwciFCDpnfywrRDbOw488+moSUn+mVz5WUSfXm/XngBAUHpUFFeEKrFgJyo/VxoktJAE6k1csecc8WYjl34kH+gFhFufxxVoi8fVtTpBbQiyh9imb1iyyrrTRHTa2VAjkOXHAXw/K9RKeFffcU/UPf+2PzvkSUCJKiov03PYcKDfphCYAzIsVpRrxeFj0fxo1iK9KAOSAZj+XspnE0qiUrPBICQWWfMfaijSRoQv6J+WrqUutAJQ0hCsWhgEPpDlWXIpVSgZBqQ7EwZkBO1dzKRZQoEIVKJGRP1JtbvA2Iq6finj2w+yzAgCNuHDUMAK/R8NX/irmhoUjD5coULGpJMVAKCVh0DQjyR4EkqvXaVE64BxdRFjgqNNhoN/7H56q4IAl0NJmOo/hMhf3wXipoUEjd1o1RRxt+pAmQIs/LcZXWLVAlccC5zDu/nIaYrV/blNKPNsfHxiclR94zl9Wmdvxp+Ax5Jqzmk0Vma+q2MHLP1bzcJxVRwEXu9OAwttfZzw25cMA/d2pCtiNB5DjVdvXbt+tT0Ppxocvx9oDGHiLv4KUg8e8oLz5kJDn2djj0Kx48P1mreDgCTO1TUF8eFCEhdppDudcCB4rpkuyBqb9laY/SxDiNdvfGBouvTez5RYwLxeH+86TjpvXxKkVRKijLq8IwREZ8//OQApnH7/2OR+yc3mUMlQyWN1Q9xuhDclt7pH5kOAbqDg7WhXDLpv3SYddb09Q+QrqPaunL16tT09O7O1Hxf05hjY3QIM4hIA0ssIvAO8XO09Sln/vs5lQJLIgK2X2L5lheYinQNp4IPDPQP9KnzKMT8GOQwi8gU4fHBjavqwfS1G7uXli4AAf5zl8ICWAAfBwhaZiz/EXLcG6XlEmvk/fGoztC7dSkYlU2UoKDyIsq56R/iKSkt2zDxstnema5pQD646h5c35WRt4BMOv6WDoL0ho2mQTwAH3fBEhI0PEvI6T5F/aJ6rzwTTBfW+nny+tA7Z5SWG0K3LIWyuhUE6hxSP9X/YMEvaMOBQ62zfECM+kJwdkyj2oZMzNinKi5EYClqJK250POV7kUHSOLWMYDS0bCk4vJrNdezWHsnpU0Bg2h6hniOpxFCVxrNVgdAZKg2OHicNvy+eJ3Vmm23Wrt5I9l00lNXDTjXdvUZmhNk0z0tU3GUsr02QAcRkZ7OogBF6H44Ok5TnlJJXhRZ8RoiABD0v5L+vGYKVsDq17CJDpSdFCAU9B7185InWRhyvlCam53/8MMPF3aGyJWrU1enkyskIjem1NW0R0CSxtjExFgzcdFc5deWDDnNtJwwp7O4AUQDIT3jggqLpVlRCMXm117pp20a+VDN02BKZCB6AVuicFdW3nQ/CGi4Pu4ZntdeLCCIxw4RuQr66frVZHrq+o0bN65eUeww0vLB1G4/yOioDkJMdaIaEW493kBEBL1VAaJtgBURU+0QxeWsgCdzsg3QphJEioO2Xguikkqpons8cihKy7xQndVa+JBosfv3TN+wztX09FWy4r+45tTXXok6eKpfk4QXZRUJFGJhBIix64mzLoUQTBeBOeiwWpyODwYOwJRLSExyHh1Xe6G751rzGpCFuW7fcsXY72u+R0VW/fr0vuwA4x1baRUEkhulRXoLc7+JAcQiKUzyCZ8QIhMkNDJj6BEPlcojx4ORA/LleCbeLNXrDxkg1qEKXdzp6WvXQFz2ZysbTzu8oC5wjD8ojOMkItbwCIekVlr0khTQ057oJ1gOQ4XlXGMoIngSHO+JcXthOkv5djctIF2/a9qYi5J64vuYgEs7nUW7WpJ4JvA3YV7zACG7TpEIzBsUthMejzhZrh+aLLE+lz66NNd+vPb6Xr/c3Fyr7NgyqjQvfrhTo37FxB/Xf1HBLQ+YPRHreBao6+nkCQYmpkkBGe8BArhRkgod3twcQ7/0VQBywtdZxjvgZUD2Goq0FufnFxZmy2AAzS2CWZ+f3cH5tEd1Q9kLGTPNjMXs4HSN5mSzET/JWOfTUFKEPCwIDqUwrwSAgIgwHYAUFg/T9DNQCcgZP1mpP8nrESDHajxPtqW51myn6E47UgYR6OhjwTsXFxd3gkdyZeq6yWAFGSPDLvwrXZ+tCZn3iWb0LAvmnyKSjDqlUUSYF5aHgCQipXg7KzLjczHjhg2UqyMKkFpSDk3jev3gQJJyzrf+hiAE8wvtSsNsHFullVipV2l3ND2lDLj94HHPJjedzl3jESTePUDcaUYbDa96hVOA1Aik3C7XfCIF8wHhxSWcN7B4MG43OvRVAtLvZcfsicJ6PbSX0sgb6/wdtRDMtzu/pmiJ7wcYV8pFQhat8rQNzNuTqYT4tamAG3geKChOTDi9Rq4WxeowM+gD4m+CBS9YObweHqYlnp8sl6ui0q9FJjQ3aGdcfZFVMlVb5kpTYB3bncR+nenqtetVRcLInAQTflsCMq4BmegECHCYCoqeXmNSO7xKAxUuBw+hhpf/lQogDw/EQqaoJZisACRaq2hjfa+j6/hgzeuu0DCXRMUJQYWIzM5v8eKOaapzkTA0J5x3JSQOkNCuB++cmSiBhluoQQNJXjCLQQSIYlwBAbr7fJwCRyaFOFPWWTW77Yd7vdUq2hzQUT0kvPp41fBOKCpbCsHc4oc79mw7kgkKr1WXPXRpzvAsYdsiMjpmAInO5D+YNOUSz9CgSCqlJXPlTJkLFoNxawPgkhi5nGWooqTu6YLQXUKb1pslETlmGxrw4xuPETf6Dug0PSUgq1NtTlRaWwgBk0ZEFvcBEBOC3OhY9vDMSeWlFJMx6jPhVwzeNlauX2GSXMGR5EoreYAkvn5XH2bk1t9I17WL3ScIR5GJ1yJEjoGA+K1D5Hrrndd8CEq6Jrvf2YtEUbFCME88d84W+IdzbYw09gMPm8baqg7lmRNT5NuCRicntJMVHBm8a6xCQhAR0FwSPFlWAQhjaVG/eFvgsYaBMoWEITSZZvUzURaXEifuY7BL/vVFKU9hWlC2utAYXzJCcEc9bLUXF9stgoPQhWdmu85VbUVWQv6WbeWJO3PCnJ8NXRBXK9ogGpNjk0061vOt/CO0FMV2RqqvJ3KISrSIMAOIOlOqYhAlCIUUXvMCFEUIDhCSdMAlfI+71dUulElhBtGxmVhqroYt+cSXtBAoQGcXdBiop7sDwiTKHqC56qexwLCyToGNMSdcL0yYnppS/tn1a1u2cTm3IJQr8rLGm1GILGFsM4GEOrBndHTm7j0GLjgNGKCDpeyMtOoKU1oACTTzZiljQzXcN4MbZ864u70YSDispHHkJSsh4t/yeyghaLdn59Tnu6M9roU7FXDMtol2rb1MkdDTWAxtWZW4mPF7YPP0lOkZuja1VR8Et1o6oMbExDgUFEPnWnFYYrAu7zcnLWFdXoECASEcnaXmYHhmRKks9SahB58H9Exu/0nhX/MIiZInXtajhq1b3EWB+ada7OxwKc2Fqm1hYfeITF+7fuPGtQoLgkmAGBdmOjemp0yKWHloWxcVSWvH33a0oQuKMggBCqHEg99fngyo0WAYgBSY783R9ZKopi4r+QDXDLpLuMBz9PUN9L3OKO3ifwxueop8Xz7RTcWJ7YncDg8XkizGmqnVtq8ttCsiyLnZ2dkugLJFwuoPg96+n6KDi+wXU9YbAES26UwJkuij5Ze9cjlcxB9p6RiDsvyYhkRp/6KOPaLgV2k4cDYBgkKRwr4OzzxINECj/h9jRWHaUENETI9RJ8Me4JHMOaY/CANIDw9IspRY3wLx6ZAO86irvqtQXLj82ykPjw9uTG13EqVRCI2mMviTcSqYm1bCNOV5dpfQMAHm+xMT+MTdop6ZpHE9054u9icqzqechTESZ6MaVpN4hmowz8wfdN8sMTPASYdoJAlNxVyosrwActbDo4LzJh22Zd73ytVr165Nd90LZ61+ICAffLAtIKCZOPhfOmUSi4n4Jc4NAj9mgIsWDY0JPPerjOmOU1GvIxzQI8RxuQmPY9bRZZIxFLBGYsIPZrdshYjYFvwK0xmZ7ksfz8dxOQWQgYBACBlxvt1NKZcswbWddScqxnkWpBudRY2DfMZE6H5yntEIZ64Ltw3g4/sxjZNxxzYIUFYrl9GUYxevEDntYPLxUCeZGLcC1rDhoC2TubkGO5VN0hcjEuLBMnFzUeukkLH8TjvA48OoBHLTwDW/hRkxxdvue68Y0i8CjdUlIMrZNZlgSgUz5k86czSqgMfE+xUEQnKfERyiuDiSSRoCSUk+Qu+pEZxkXImJMfCukBAgQj5vVXU0eMhEdgltxcJ8OQ5sLYaALLQlEU3gPegCEBun34hEhNiu7Tn3/tEvXIkl5D8p8yr5FsUZeGHUXfnQ0lg6+N13O+OhMFQvaTggFtQrf2RBc6LBhT0an2Ri0oik9LjsYl1d8Wf2YTUeEuBA3sexHzBltgSIZhcd0k0K0gEyXcH1ra73CJCp/1zgkCzOY1YCA9+rMeEBUnFWnuSd8UBEljUcghoelZ4TtP0ndM/LJxkzjkRQJ/MQYQhwaUDBxyMvLoUIcMs05FdZQsKvZ1KQW+ToPUCSrgn//tVrPh7Xp/S8cgaISG/AX303cj3hi/kSsixKoaf68iAgnfBAO3IPw3IsYIBjm91LsfE6DCEaZVDVe83HD3htSlfQSQQPIVJoz7bulPBg/yVLnbrgpQtWvXAzsiELsTvVRQrStpt0CYh2fRmP4pD/KvwJcv3BEZhl5elMNu5jisQDZOKu0MLkvpeAS7uzgKAZ+XVm2uGZ0MH8TCOSj6TqJGNm3LG6wsMgH2TzHpD6aDHwwg0Aef2XbEumMMNwz8sqByLbpiB1NaQ7PHQcQv/4kfr1Ka5x8EHBY5cniJP3MN+07GKLGW4EyaCynYAoAhGxDJ2BWGUcfajQDo9WeGlKRJolQMy6Rvw1Z58oHBYX5qGXYUH9esdFfZcy0QEOBcaDpSVqR2Eft+e30Fjd0fT1Gx/cuL79CIhtprBRkM1l3YD0ImHBkyQExY4aKkZyKe+Z+GJihroK3MGSF0nS3FJA0IpY2+P00sTkskvQK5qpPInRWXZuCq2AYCoURaOXP2zrRJRmZ3vppj5SZJc68ISz1qy66hcWlUhJEZj13WazpqevXt0mCvFCdL+qOT01df36jevXpuj9dMVr70Vz+Z69VPXgDnFxfGzZGRkjV8pW39tGQNCKlPCAp5fJucyyTPkWn1YCMgZOM/y9PDQCXIcmrXY7CrR1YCcr4LBaymQT4fA5/sCeY35x99nF7UXD/R4K7vTVqSkPTq239AN4dNdyxnpVkBdRcTrVYK31V7xcEQDI2JaAgM5SHFf03wKmj09+BE+PEP06jvM1IJ8RCqXsCET5LMYDAjtAJBcxHMxrvfKD88X2zYQreVExioJj24zV9nTlynQFGB4a2zc4BJCohzOOM5MStyqlKQ9camasv3KZi7vbaCzUWX8HPF/576Eojf16xFEnQD7SO2vwEsBPYyRFfeQyHioUb7dog7zPEf+iDJMli7PqtRaUTdr7UDy8At1A1xwkUeadddkBxq3eAvICjya57QX3g1fpGFOo37oG5Pbn0YHjhBPRrzqorC++WBmp17PU/wSGHpXxQDWUhAyJmBC+ab4NRkeBO7cPG210nUq7W3EZpFs4QkhGG01nQyguC6XMZQN4CuAsT1Ze2x4pl+pXgMet+EAfkL+rVHyTk8rAFEqtrdyu1wXMqjMvvGtXAaK00JdocfJLsmIBZymbiMmrPOnYMLsTMpXca1eoU9hvZtyu67UDJKOTE+Nj1suKZ2kjEvCj2Q0gf7/ym9/e+h8lQD6FRIHSe0BVrsEEOMcUvF4GXOpFHbc4kQ5SeqYCD3XNLxUXC7cQKtJ1rTgSbOtvsg/dvS5kx3L5VbvxZCfCEUBCLi4hMq64gc9XyDJepLiaX3QlIX9/69b/XPlfJUDuFkjoujUrTjM5eZduOcIlxbAZvSHDxMKdSgFRsV2b5dxLk5CuQ9TV+x8txvglFPCzB3Nze7MiLocCIYkeZru6SzgIEu1hTUBNAtwqfJZbCPDL2WtOoG1tdGdDoKshYvk4uVD65PfLwE4AYnmWX8KOLu6iUig6ZsVSR0BuQtEaP+2DB7OzSw8fmhxRltU/rkhegQmZ3WOfQ+KN7EBSy248md6LLhxzzEKDONNsznyKGGix95wtKkfy+924vSMZpLOWxyJ+B1dDIz6Pkqz/DVMMMoN7WCCH8zwXKCLwox3E2L4R+UrgMKMQSxDHK3e2/VB//rR4VKGyOFOer4n29wCJ3w1kJ9x2OaGONOqu9bF7Un40OT7+/oQK0OPjEIkUtyR2B0j9IvTE3QtlYNJrkwR0m+GJFB53M2Fqi8ybdtTJgs6AfAlo5Oxm24sAMU+SZ8XvondBXl3MOmHbS3Doe1l7XRlAgDiOjEF6SXPGq6aTXsaOK21ak8ltjIhi7AzwVLKkORY8b/sRdTuun4SB+lQDVtJwsm4Qq4cXhYrnqgFpo4QI8Q9eVkVFfXMsxSg01Fnz7Yec3fHPtH1DQ2fClQEUh+w3IJPx0IiDgn7Pjdw0txERBdin6nild5SIuC4ILHboZiPTLI+Vronx8fGJMUxJQg8k3qpKQZLl8Q2POgNC1i50whbb/7CyAoB8HbxtsS3Ew9AY7WyQLYZkWvu6VmVN7+FsetmJlgrrh47PeNUrHWu5MtFnW4sIVHEz3JORpfyzJsnAuHqWMutc5F6rw6d3TVPX8owCgUlhMrs8ywQPYyKl96vwUOoJ/p7yigO85tu//+0//vbzL74Y8fO7IA58KTzP/D5kUBK7NmuPOxy0zsB+Bmfhjc7ykhCmIsG2ExFsIOJFlr4HV3phOG5bWFguctu5WvCk0Wg0m3+4JyT00dFkA6GQ6sy0RW+uOg5ZaH89oiKWIvbBFtu3b99SQlJkS1428U6i2+D3S0Qs4QzoDS+PsjtqgsrA/TNJELFHSQiseFHXMr+3VYVqAnO9nGXQ1wAFDHb/7qd373M9xIGVw9zYkkLo04MJYAlYHtcHxMmWJK73eLbS7223RaE00+/iF+fbvytQylgGSfuFBeV+LX15+WLxSaz69gcQTMp336zVkdQVqgc7m3as6n4c949+1hg1d7uTqPrHO+MBxUG8tkWRFgkxtMAeOQ53K8ZVTMTowlz8ObKeodIywRDVw3xI5qr8rIV2C+LI4uuS+LQfYUuHcn2L9OHH7fbHS1+q0OTyxdgR3mWV6sWTMfETcc/iaHNsgoY/oV6aoNKqRkTjYXJKApoWacgNMIKFf9K05ytGWwGBRioQDTAjZlJHr3wykKDqqrAiyoLcRNG7UwJkcYnCQyU+IgOHC0v9ov71DwUQ9gfIoWj9FQBFnYyT91NTd5is1lqAx11mNRK4vsDPnFpyZS453aiQYY9WcdlZbNJZYEZs97XZu2IhUe8qIaLwuEPy1ipLyB1KiRZZDl6fNE31X8ZytrBPKmuXFC+zTvSXhUsQ1jvEDaTMCMP4r20Z6H4VIhBKTDaTdzOLB5XhZaF+IaFR0YU0N8vltwt/9wANKmI7jFaXqWlHtJAkKvQLeqUXEQ/0AedK6owiPnwvtBZzmqZn6R9ja/Oi6obdES6zHotiPx1ulI9WbtVo2MmIz4oCu3InxiM4lL7KM+NECWOMUy6yi4lpbmN6qIgXqcxMaykX95ah5ZoDIma+3R89NJAsgX12cLQfCpzfY/Kr0nVPfBa4r0udgEFzmHI1Mh41y+1hTGQfqBEss1ZgeF2xpbQ7ermNMiCiKLhuf8e4btwMJDTQyNhVr7YizvN6RupK/yUFykWBqJATfB+aU6A75S4oLW9FqXsLdNupnw8xJ7iIGav27JxEAcilqP++3JPI9dvwX1YvhIRPx26GIvJy8TDcbcaVzhIgJonsJMQMrMtMKSHeaExG1LzPaRiN6zZFM4dGqwOyoNCSXi5IUIQCx/agICJGRKJdIcBb0HIt05a1NIdrI4SCo7i48ru4/6EFO4EFBP9w2Ii6ihgN0cugaLX4Uk263Rgwdr+soIKOZQvWaDwezcF3Eng2D43lBiwiddsbBNejNbSvMcmIo/ZvFMIoLwWJl9OavGfry+XBnWKEDNRca+7mA10tkOlI8d7K7RUVkQejOA9BMosRNGCQisdZXKW0ihyqVrapej86HfZAzfhq98nvlfAU2XI4jasMgrBVxY8aM8vLy83G6GdQInLdBjwz93ymvYEaFWeeTQwCyovNeP7BBHYfeZ/Hm7mCDVwOU04rf4vinz6/NTJy+3Z9yR9W+xiMS5plCpICx+lwnxQvMpxGhf6VhYX5hcX9aHXYCzkJqcCjoq8rgXInXb96XATwsM0tuUguwcwt3X/bXxKLUb25Pzo6QsZlIjFxMYg6xg9qxic/grKt/4EsBMJk5x0kQrz3m1u3Pr8NyRMObJ7/cB75DDfuYfWV23XQaDAVDGZEioyR5y0eodabffBS4XD6Z7zs+dL3L01103yOstpGPuAORYabSuXgzC16nv6CD2ABM3dDp1Zjb1+pMq6Fp4lGg/L65P2suEgv23XNOjYknLjTacqW/9Otlc9Xbt0qcEKy1XLWJR0ZuVxXLh+1+WUyYSAdjKycKOh+AIncQ3lvX6ih6+feM03FbEq4V1WDifdmMJPh0LNwlyz5PpSrd0YIJ6XkP+uMJPE1mH++PeL9pRCQsVHFPt3FHlwW3EYoBAkMwI/chv6W39RHCj1YxW7eefjHrzIo/767MlKYRAwr6nk2orDIM9rcIXAbcTwr+lIQmYRl1s6CUAYePNq8qnMlKhOBw+s9NwKDzriWlxuboRkAmuivjftbAiRXMYiwtiGSkFHcnglnyN0Foi5or5cMFGe9yC5/jhWPon5Rh5Pwt2S2snIb73V8WSFijs+K4t2RFNIF+DUyxIJFH+sl0ag/h2z84DFWvbZCBI/A4U2swkrECN4Z0t7H3goOh0neyeW7tAdHC4qHNlygzBp4l9Z8nyrvTGRoY0hmNSipZ3YUM4uV3/wjZNdH6rA3gucZvsr+WdZH6vV3C8xgXl4xmpGNiJzV04Jcff2XGd53eftezwMl49OO3++wiD94JGApgGYjsPwPDcZSWqKFX9scxpuY/5pYxqjPeEsOV+NikYHmn3r1lQmaxq2jf+vuf8G5HpDTb8wu3/7i888//4KOY0IZhywHo53BYmy4PQDtMCDOK5FT/6qrSQUhKWpaPE1etSzh5ZKN+sablZ9MhHjAZagxQpaPT8xAyYMFY2bcTThMLDtAPOUg7GnB3ComLk/4AgLHijqWquxblEVOzQwv6Kvbt6FbdeSLusZMabR6vYCxblg8pFwT5Q4roZAQZcL9ScDmKMOe8iKnUg0hjQ7J3NxeFtHsMyBWQhod7h0S4sGMwrIsn8E4PPEAEdzFFWOfSQeIXdbkuVhMXr49UnzkInWd01HGSvrZNTDDcNNKsOVZnarldezcwxqUek6iJyX5za8fPmw9FLBTAp3GrMBSi5IyFYiAxRMjRWG0KGQll/Q01svGgmjMaYoKCREBHpidpYvLS3Dd8yNKOK641PAmHJjdC8+cb+ZOSqsFhLgLabExr9KrlJa3ONCm4JUtH/niNtly3CHMeQZJKggv4JYXduLt0VcFwpfWYdcH3uKEC/wMguM0Ml1AfBZCl71totlXMrybrFKmvoCQw2ue8lh+199lSrelcEZaaUJmnSOts5yAsBS6RMnMZp/eXfZ30vJsRKqrFzbBtCgkTFASVhQc6n/kR2FasRAZygBI7x2vM+sTqKmk6M9RYoBTRJuBpOToOLNk1rYOHSpExkFTbJ3cQofXKCy57CLrpp9sYhz8fA8QMNHppQAQKyAS5oFNtMHJ8DqS9T/C1Y5Z3TtfCYKjPqJsuTIf9TTHG+gKKmFiTlcd4rf/AoOp6Y7DPWBZMjerlNNSi+usDdRpcr+stU/dJ3tHpKFXv5QA8QUEHV6tsJT/4k2G3vXekVIQ7yWIsfArfMfXCAjDrmtmFRmHyroXCbElmO78kNQJdItwgANt+UpqtnfY3RAQK6bRbE77K4jG4SClo1rY6ACDhndMBU3Zr2iY52VjEfF/iye43oKl8WBNb1TXsRALgvCbLTJOkqrWDdwS1j6RgKC2Ev52INzv74WLfo/JPLCxPrKCxqOeKhLmJjL25onKVY5HQZZ0xkX5Vl+TqUDJeWhRfxjUfQ+LiHQCJChFYNzF6Ye67mxwbYZKEkpomRiFyvDjYw0aDtSLsjFP/ykckheZiBrhuF4lrs1FNGiz2P6dhiOjZnB7FTC7fSnuc1AMxv20XOShLjMrB5I7YVHrsAPi4UFJIWruQV40xnThtmHkH/MQQr8DEjQmQ0PNoXyU+konlCfFBK0JCqaY3MgtKJl48Gm+/XuAY6UOjfnBSnVbwWelti0c0YUq4SfBSwvtm+pv5YqWIpE6HGbdciTCwytDZMJU70xTCAyaK5Yvj5rNlWhbMwei3Q6oKxoz3si62bwR5M68XXEcKrURcxeUiNyC9ULMOymQizfLI7qzCbskmUw/Cc/W/riuokghiqip9JD4WY4hISD2Bb3WEtx4gweop9HGzKgOCjV4ojqZjSrLa1IZW6YDSxVkT0bLTYpKRNJAoGROM0Wpng8ttfcoEEdghLQet5kutKFipuiTw6yyWMweQxoPKMoKh0eCNSddhdK6RrJOgCgd5teg7ldfAe5vtso9iottPa5mB9bqt+uw32hFT7//rgKQ+t+AvXkQvTLffkANGDf3Yc/GgQMidaIBtzkwdyTlTV16PeGiw4JKOL7pd3FhsavCqfMB+bAMCC0duO1o5dZv1M9/WaFMykhZZf3+snLNYCIhtva6UBh0BM0fLo0VMcgZEHJ4wYGy3Z3IZb0szo06CZ5Up04BkKD1FKrB5SPZ1oAstP/PLYJhBRHAZREoJDjWCyNWcaNp+yGtA/myBIjZkOJ3wh8ykx5yyJWthS5DWFdTS5IGxwvs8qRrQCoTZ4xtqbJwGV9+CYh5lEuW61/jiR6dDGF8rqSyzL3HlDZbNLflOWRhYQSIhwdxPjMNtvqFS/SF7KG06bgjIM0AkJlq1baNDem0Xd08PxeJSNu8g5eNOv0p2OLY0qMKh0w+Ql46s6BxyOsRHnqenFlvWfchdAJkxp/xmWxUfwL37rlyn3t7Cbd2VbzPLIRnd6Jw41FdHz4bub0tvdyUsLzTmn3JzUCV5F9/9qrX/dCMmghcL4/e88atBtMF4A6AMBUWOhGZmKw8LHCDZ8txyCPYNyCrQElNY91ssPinJaVOHcxFSCXaHQkKnYeN/MyVaZfWDi8vYjwSSlZYQOxq9soz58yuZ6YilKw+znP0SnNn7XaCtSbOyqDoBebMLdSCRuwWpOT1aNDDKA2MPp1xQg5XEbcSEPrHOrxQe/P8YnODSWSBqRJ2BMS0QeptZuO0e9Q21Y02G26kMRCRKJfVwncVVCGMQKFkGS4rM52/S19BLUpSUxcWSrTxtnd5sQX1QwpIae2qc3iLoO0Z73Jlu2+1MjavlXP4tu53t4lbxU1RECFpjE2Mj9u6bRC6B9leZ3Ohh0GPKzpQqEOYOvZgX2/rK7hvBtO5NRXMC6zUYs/87E1Cwa6c3Zd7TL5QQESiccBfpO6ZMa/jblBu38OCrsT4yzH31pzDrNBnn7kXpbQpylEDXoiIvah9HyjnhSmcGFDwL4BtN1c8p6Fec+/qolDHfnXn69nZ1k1JU47cCschFRAvFNRVhMzeAcT3SBn3bpem/oEsiFsHGgLCzA0V4Kcglgdf3ybxm95fttSiQZDF0vI35lZHalBytNEodDaPgIO92tdQxkf5aNQyJMl+kGgnh9amO0CEwYNTMUr4NzUws2n06LMmKKEZWXEWTwNRZl7Liv/1veEsenPMG+WPKjSqfNJwUSFLv3p4p8XB3TIfFR0yUw+AnR2XM32DFHWEbcj6IUiIrgoWuvjBzO2s6Jv7oxvKAozbOm0JkOhmE0VS1tjxcNaOughBBIzq0mtgH0nxS4sR3O2Ha50Fve8wKpLooWxzdSTexXXoyDBK4A9qMcEuMw+PS6kZUiM8/GQhPoMrsku8ZSQgPpZI8fji/ZlGdcjY4RNzVETcto4stL8UdSM3SpaVsiVvTsKdFwuzrEPqLmbfbz98FAxjkMOLxQ+/xmFv10ZPuQtcN9NTSlcJjO8vjTabyrMtfLtjXwqGs6CkOGE8ri4JU9BLC37IlwvtfcGKWz2wCEs7IIahW/0wbdK5+f+hJHuXyEQ7vHoTjGs59xbH0nOuxEEXuOtm9NUSTXM2R1n0h4BMUh6UXsPU4XeEiPoofnERGkd0l6LkGTiIgpplGN2cFyYa7Y0ayKIdUgGxKRCuHV4qRnF31/RgPTD89Nf2IxOtwHirB4xac7frCVQEIjKORijyuLqncLTQfAkYJxyBnkaJgNiuLxj4gluWUZx+8+bcYZUQky3RDi8Vo1jhmfrS/HQkIRXz016h0CEScACsDoaKFePw3QISZFjQI9NyzWAzYD2HCaOcgiqGywPRkEh2yLp6KwHBWwtnuJWHOZ8KbYLv0NI/LqWONqQSEFconAz/UkyN0vR1lzQX7i3TLrIOpqC1/suHS4/uPCrIeaQ+RwiH5EPYu/jh/KHp6q0GhBxe6vXhpquHs5CN+vdRr1Pbf+hNlNqpX38PRKXWHt0fQNpfSeml1mXx0O7FhPlo8wWCRqOFQ1ebskyG+fIi0zcH5syrgQRerOGoLnKYOGQywCd4KhCbakAq7xbeDQW1rPYDITK6oYPIGWSw7H1Wl2RdukLPnaAx8rDJyOrq2traKrBdOby0kMeu9TMuuyMbe7EGpgttFKIzU57n6hUKHSDVOsv3uHZEwQ1BZkG6hdD3nuXehi2FCO03pa8VJJMPWRPp6voG0WPOcacU08YksQtjguNtGj6JBxYncT2d/0ywZlNThznLpj8OvwPyKuZ0qeNYFvA9XD86357FawtBidpOD1OfNcDx5OnTp5ubGxvP/gQt6TqHK2zHVYcWuoor3a6n0+QKhd4Cok6xMXpcO5WPxGsDdqoH7xkeLydfaN+0dwybjarshweQtY2NzW80KUj+nEljNez8c8R4l4jv4vSjpizlM3q/YzG8ieR8dMMcJtNHnW7ryWJA5g+kR05ZhtVtj1HS8Y2lpxsb3xo8hG1I7NRj2lVINYprIMK2hv2PxVqVWeHyolJ6njG2dPCAKFX05MnGxjaYbGx4eAAi6xoAtzYhvp5Z6ZetyWu71nRAwfFceVHpA317GlZaYvbCP82a1kSbG2tdHPWN01rfUX3PNCSWtzvsTEKq6IASrKWtf54zFQPywv3eNXvlb254MrKmLPi6h9DGxjcRKRFJoHKtD4j3xULq1jzY/YV+MCIyV976N9fhtRcfiHhX/ua6eXKN3KknVmhWYwH55psnG1gMNQFUiAdsC3A9Cbu/zg9IZ8Uqy1dMQePXi/d61574F70WESs1Vo1VAKJ0Frf7sCI8dL5J7xLag945oJR3fGvoQA68F/dyg4Quad1n9BNiv2cvnipLAd7449Ck65dc21t4JTe8PRzJni7zl2NEwizinOkzgltbvPCPEjB68xmueH7ugfTkGd5E5/syIJsbj2VB98oTqbuNIA7dhAWPveidA1qKFDakxjnElunUOoC8yXoAyHNgMN8I5IABxysBWeU2Fc+8m+Zx77bFmM7dCyAH5vgG93gpvd5qzbb2eGewLilQWZuPOTI/cKa+hbv+fbvxpAyIVljlnuao/rEHtQNb7CZ3kSTZMc2ZTdjzCy933eVq2agHT8FzICPPym7vmgwGDzyK6h+7v8obE7tK6+6KWrbZ7iD+Wmfy3V6y6auhhICRYOz7cmD4vBMeLkNOXtauAbHNEDus1e6SlF6anT0YxbQFOYd2c0MXYn17sbkhcV0IXw+tiDLpAo5lW9QsdL1j955SM3DWjgopJxcgefpkfRU775l85uksJTXU5vPdhi8jmxsbUndbVhPcPqG517iwotR7BIjzNag5/eVf8UEK937w8+yMNqzL7HuHyNMnG+vfbolH8Ad2/dF2Xaz9IRPtifkuSSEpxSXuRf1XzfqnmxvfU1dJlomCrStINjcho7Kxjh5Wdy22uwfEeGvjB2LVDwmh3QA7MUItPSwVRf1PjzeebCrGP/uehswBj0uMrz2mCu76aiLjhobOtHuv13hrO23A+kHS6vr6+tqaDiJgf9fti2S+pbicieS756jInmFHg8jSTA/Sfru6Cr4x38G8xB5iuwbdW+koCMg6iIAyzc/xEcxIFN+vPX7+PW5WG0kT/i0d8WRjDe6mWZhhZr0TQCTdX/l7CrYbzWbzKMiHCbwpncvqkq1tPFG0sfadAHTy56ZiqyD5nmc0XWBbwCXfgSY6rD2xh4nWvXSucnZloSLxpybeY4LJP3s+7pNn5nYfZuzIX9++PfUA2ZbWvFgcM7z1x0+co/t/MyGDFNfGY3ob42ZqaidcPqxzLoeJQnZ/yxI/mbv5TLLVICx/ukFv04NeoLC6xmO02dzRsNPRpIDdT1Qs/jxAaDWsI9pKolZUwcDB1jSKkcTBJAd/yBRkD5/8W1H8JagbPuePNysAAfshUWF1rYR0ZNdDZBsKJeRxLsK64V/qf4kkBNPAPFld/RYUVtd42MrhkcpF7YKCMqG6/HkIyFqyXqWynoNjvPG4ezzcncUOKH/+gyW/BLUJ3TzPIqPyXaDUNtGor1Ngsvms+7/T7AHSJflxyHMVnH8bISSCchQWrtZs2WS96z8zagF52V/4sJOtSj2FzAjn3HOEoReo/tz3g1FjOZl5sm1jtqVON17vUYmgLKVbE2EHvasbPlnH2xE88wqJgYDYSm83ROnao1Xw2y2tra2vr38n8Pcs42sbTzafYuUJ7xzHksdYSHz6VLeTeoA87V5nJaONsbGxHh7dk1m5otTWc5hXe/ZnKH7UIef7+LGpfQDtTkJ6tFPSK1cYE0WKy+/q6Z++/1bA1IeEQR5rLjzHrAfICyQakBfqvwKWqSWrzzY2YHjncSbCcIO72GXjZX/of9dEGz4gQQU3rzZza5sb/xaPp62aibYnPQF5kYQiIqC0zhP+p8i18g7jYOWV1X+60cPjxZL8dn392dpjWI6R/z/PlQoVE+YV19Y31te7D0J6tBtaBXcXiuvfJfmf/YRJqJl4soMUVo92T3Y2Z3Pj+yKoirhoY3V9/fFj3ivEHgStBj2KawEgG+aQp8p0bD5+2R/1aJAPwZP19SpATPPDDsLzHu2awlmp534VRCNgIdtBSrFHu6VoEiSY7NRG3R7xtOfuvniKZ6W8QuGm1lj2mZ2kFHu0S4okxLPxNv6zR/QyWAdAq+GsFHpdNLxj43GbwuoBchC0Hs5KJbgVy+XcE6fVengcCAVxiH0y8KcwdHza83oPiLxIvaNbCymsns97ULSGY2pPeiw/PITF9R4cPepRj3rUox71qEc96lGPetSjHvWoRz3qUY961KMeefT/Ae3X198MaL8oAAAAJXRFWHRkYXRlOmNyZWF0ZQAyMDE2LTA3LTAxVDA4OjE1OjUxLTA3OjAwNGMGCAAAACV0RVh0ZGF0ZTptb2RpZnkAMjAxNi0wNy0wMVQwODoxNTo1MS0wNzowMEU+vrQAAAAodEVYdHBkZjpIaVJlc0JvdW5kaW5nQm94ADQwMC4wMjh4MjI4LjAxNiswKzCqZ4fyAAAAIHRFWHRwZGY6VmVyc2lvbgBQREYtMS40ICAxIDAgb2JqIDw8IOKVdn0AAAAASUVORK5CYII=;rotation=0;" vertex="1" parent="1">
          <mxGeometry x="365" y="530" width="119.77" height="68.27" as="geometry" />
        </mxCell>
        <mxCell id="Y1COn8EXfvMnhqb89J02-1" value="Source File" style="rounded=0;whiteSpace=wrap;html=1;" vertex="1" parent="1">
          <mxGeometry x="365" y="20" width="120" height="60" as="geometry" />
        </mxCell>
        <mxCell id="Y1COn8EXfvMnhqb89J02-2" value="Verilator" style="rounded=1;whiteSpace=wrap;html=1;" vertex="1" parent="1">
          <mxGeometry x="367" y="110" width="117" height="50" as="geometry" />
        </mxCell>
        <mxCell id="Y1COn8EXfvMnhqb89J02-3" value="" style="endArrow=classic;html=1;rounded=0;exitX=0.5;exitY=1;exitDx=0;exitDy=0;entryX=0.5;entryY=0;entryDx=0;entryDy=0;" edge="1" parent="1" source="Y1COn8EXfvMnhqb89J02-1" target="Y1COn8EXfvMnhqb89J02-2">
          <mxGeometry width="50" height="50" relative="1" as="geometry">
            <mxPoint x="200" y="210" as="sourcePoint" />
            <mxPoint x="250" y="160" as="targetPoint" />
          </mxGeometry>
        </mxCell>
        <mxCell id="Y1COn8EXfvMnhqb89J02-13" style="edgeStyle=orthogonalEdgeStyle;rounded=0;orthogonalLoop=1;jettySize=auto;html=1;exitX=0.5;exitY=1;exitDx=0;exitDy=0;entryX=0.5;entryY=0;entryDx=0;entryDy=0;" edge="1" parent="1" source="Y1COn8EXfvMnhqb89J02-4" target="Y1COn8EXfvMnhqb89J02-10">
          <mxGeometry relative="1" as="geometry" />
        </mxCell>
        <mxCell id="Y1COn8EXfvMnhqb89J02-4" value="" style="shape=image;html=1;verticalAlign=top;verticalLabelPosition=bottom;labelBackgroundColor=#ffffff;imageAspect=0;aspect=fixed;image=https://cdn1.iconfinder.com/data/icons/hawcons/32/699613-icon-102-document-file-xml-128.png" vertex="1" parent="1">
          <mxGeometry x="375.5" y="190" width="100" height="100" as="geometry" />
        </mxCell>
        <mxCell id="Y1COn8EXfvMnhqb89J02-5" value="" style="endArrow=classic;html=1;rounded=0;exitX=0.5;exitY=1;exitDx=0;exitDy=0;entryX=0.5;entryY=0;entryDx=0;entryDy=0;" edge="1" parent="1" source="Y1COn8EXfvMnhqb89J02-2" target="Y1COn8EXfvMnhqb89J02-4">
          <mxGeometry width="50" height="50" relative="1" as="geometry">
            <mxPoint x="424" y="220" as="sourcePoint" />
            <mxPoint x="424" y="250" as="targetPoint" />
          </mxGeometry>
        </mxCell>
        <mxCell id="Y1COn8EXfvMnhqb89J02-15" style="edgeStyle=orthogonalEdgeStyle;rounded=0;orthogonalLoop=1;jettySize=auto;html=1;exitX=0.5;exitY=1;exitDx=0;exitDy=0;entryX=0.5;entryY=0;entryDx=0;entryDy=0;" edge="1" parent="1" source="Y1COn8EXfvMnhqb89J02-10" target="Y1COn8EXfvMnhqb89J02-14">
          <mxGeometry relative="1" as="geometry" />
        </mxCell>
        <mxCell id="Y1COn8EXfvMnhqb89J02-10" value="&lt;div&gt;Parsed code&lt;/div&gt;&lt;div&gt;(Python)&lt;/div&gt;" style="rounded=1;whiteSpace=wrap;html=1;" vertex="1" parent="1">
          <mxGeometry x="365.5" y="317.5" width="120" height="60" as="geometry" />
        </mxCell>
        <mxCell id="Y1COn8EXfvMnhqb89J02-14" value="Vectorize" style="rounded=1;whiteSpace=wrap;html=1;" vertex="1" parent="1">
          <mxGeometry x="373.25" y="410" width="104.5" height="50" as="geometry" />
        </mxCell>
        <mxCell id="Y1COn8EXfvMnhqb89J02-16" style="edgeStyle=orthogonalEdgeStyle;rounded=0;orthogonalLoop=1;jettySize=auto;html=1;exitX=0.5;exitY=1;exitDx=0;exitDy=0;entryX=0.5;entryY=0;entryDx=0;entryDy=0;" edge="1" parent="1" source="Y1COn8EXfvMnhqb89J02-14" target="Y1COn8EXfvMnhqb89J02-17">
          <mxGeometry relative="1" as="geometry">
            <mxPoint x="435.5" y="390" as="sourcePoint" />
            <mxPoint x="425" y="500" as="targetPoint" />
          </mxGeometry>
        </mxCell>
        <mxCell id="Y1COn8EXfvMnhqb89J02-21" style="edgeStyle=orthogonalEdgeStyle;rounded=0;orthogonalLoop=1;jettySize=auto;html=1;exitX=0.5;exitY=1;exitDx=0;exitDy=0;entryX=0.5;entryY=0;entryDx=0;entryDy=0;" edge="1" parent="1" source="Y1COn8EXfvMnhqb89J02-17" target="Y1COn8EXfvMnhqb89J02-20">
          <mxGeometry relative="1" as="geometry" />
        </mxCell>
        <mxCell id="Y1COn8EXfvMnhqb89J02-17" value="" style="rounded=1;whiteSpace=wrap;html=1;fillColor=none;" vertex="1" parent="1">
          <mxGeometry x="365.5" y="500" width="120" height="140" as="geometry" />
        </mxCell>
        <mxCell id="Y1COn8EXfvMnhqb89J02-19" value="Node2Vec" style="text;html=1;strokeColor=none;fillColor=none;align=center;verticalAlign=middle;whiteSpace=wrap;rounded=0;" vertex="1" parent="1">
          <mxGeometry x="395" y="598" width="60" height="30" as="geometry" />
        </mxCell>
        <mxCell id="Y1COn8EXfvMnhqb89J02-20" value="&lt;b&gt;Vector&lt;/b&gt;" style="rounded=1;whiteSpace=wrap;html=1;" vertex="1" parent="1">
          <mxGeometry x="373.25" y="670" width="104.5" height="50" as="geometry" />
        </mxCell>
      </root>
    </mxGraphModel>
  </diagram>
</mxfile>
